# xmcd
#
# Track frame offsets: 
#        150
#        11340
#        20888
#        31368
#        41567
#        50493
#        58978
#        70681
#        81480
#        90166
#        99725
#        111430
#        121607
#        132494
#        142972
#        154446
#        165189
#        175602
#        186588
#        197644
#        207947
#        217612
#        227588
#        239702
#        250575
#        262116
#        271015
#        282134
#        293636
#        303934
#        315227
#        327847
#        340567
#        351738
#
# Disc length: 4864 seconds
#
# Revision: 2
# Processed by: cddbd v1.5.2PL0 Copyright (c) Steve Scherf et al.
# Submitted via: ExactAudioCopyFreeDBPlugin 1.0
#
DISCID=e712fe22
DTITLE=Carl Smth - Hey Joe!: Gonna Shake This Shack Tonight
DYEAR=2010
DGENRE=Country
TTITLE0=Hey Joe!
TTITLE1=Go, Boy Go
TTITLE2=Trademark
TTITLE3=San Antonio Rose
TTITLE4=Baby I'm Ready
TTITLE5=If You Want It, I've Got It
TTITLE6=Goodnight Mr. Sun
TTITLE7=Dog-Gone It, Baby, I'm In Love
TTITLE8=Let's Live A Little
TTITLE9=That's The Way I Like You Best
TTITLE10=No Trepassing
TTITLE11=Lovin' Is Livin'
TTITLE12=Don't Just Stand There
TTITLE13=Don't Tease Me
TTITLE14=Our Honeymoon
TTITLE15=Happy Street
TTITLE16=Oh Stop!
TTITLE17=More Than Anything Else In The World
TTITLE18=If Teardrops Where Pennies
TTITLE19=Baby I'm Ready
TTITLE20=Time's A Wastin'
TTITLE21=No, I Don't Belive I Will
TTITLE22=Cut Across Shorty
TTITLE23=A Love Was Born
TTITLE24=Back Up Buddy
TTITLE25=I Won't Be Mad, I'll Be Glad
TTITLE26=Why, Why
TTITLE27=Loose Talk
TTITLE28=I Just Don't Care Anymore
TTITLE29=Mr. Lost
TTITLE30=Lonely Girl
TTITLE31=Be Good To Hear
TTITLE32=It's All My Heartache
TTITLE33=Try To Take It Like A man
EXTD=Western Bop meets Rockabilly
EXTT0=
EXTT1=
EXTT2=
EXTT3=
EXTT4=
EXTT5=
EXTT6=
EXTT7=
EXTT8=
EXTT9=
EXTT10=
EXTT11=
EXTT12=
EXTT13=
EXTT14=
EXTT15=
EXTT16=
EXTT17=
EXTT18=
EXTT19=
EXTT20=
EXTT21=
EXTT22=
EXTT23=
EXTT24=
EXTT25=
EXTT26=
EXTT27=
EXTT28=
EXTT29=
EXTT30=
EXTT31=
EXTT32=
EXTT33=
PLAYORDER=
